PathFileType	4	(X/Y/Z)	C:\Users\86182\Documents\cortex\Trimmed_M3_H12.trc
DataRate	CameraRate	NumFrames	NumMarkers	Units	OrigDataRate	OrigDataStartFrame	OrigNumFrames
100.00	100.00	       98	2	mm	100.00	341	       851
Frame#	Time	gripper			box			
		X1	Y1	Z1	X2	Y2	Z2	

341	3.400	268.27341	173.18254	283.01038	269.68713	169.10744	145.78506	
342	3.410	268.27170	173.18770	283.43396	269.06607	169.47446	146.56924	
343	3.420	268.25690	173.19757	283.85593	268.49747	169.81334	147.31732	
344	3.430	268.22983	173.20992	284.27780	268.03738	170.09169	147.99396	
345	3.440	268.19287	173.22266	284.70087	267.69629	170.30263	148.59201	
346	3.450	268.14932	173.23450	285.12445	267.46201	170.45201	149.12146	
347	3.460	268.10318	173.24483	285.54721	267.31113	170.55225	149.60075	
348	3.470	268.05820	173.25371	285.96844	267.21750	170.61765	150.04875	
349	3.480	268.01724	173.26154	286.38824	267.16174	170.65947	150.47815	
350	3.490	267.98227	173.26825	286.80682	267.13681	170.68195	150.89250	
351	3.500	267.95386	173.27335	287.22388	267.14865	170.68112	151.28638	
352	3.510	267.93164	173.27609	287.63693	267.21429	170.64645	151.64786	
353	3.520	267.91653	173.27557	288.04132	267.35904	170.56389	151.96240	
354	3.530	267.91125	173.27116	288.43347	267.61264	170.41872	152.21385	
355	3.540	267.91718	173.26328	288.81329	268.00198	170.19858	152.38518	
356	3.550	267.93204	173.25345	289.18109	268.53607	169.89963	152.46579	
357	3.560	267.95099	173.24380	289.53455	269.18484	169.53720	152.46710	
358	3.570	267.97028	173.23575	289.87021	269.85498	169.16174	152.44104	
359	3.580	267.98923	173.22881	290.18649	270.38446	168.86522	152.48230	
360	3.590	268.00879	173.22096	290.48352	270.60165	168.74838	152.68915	
361	3.600	268.02905	173.21054	290.76172	270.43250	168.85684	153.09927	
362	3.610	268.04904	173.19769	291.02182	269.95505	169.14676	153.66185	
363	3.620	268.06842	173.18456	291.26538	269.34097	169.51738	154.27414	
364	3.630	268.08774	173.17412	291.49463	268.74759	169.87404	154.84375	
365	3.640	268.10760	173.16933	291.71075	268.26215	170.16273	155.32069	
366	3.650	268.12778	173.17261	291.91312	267.91107	170.36690	155.69203	
367	3.660	268.14648	173.18536	292.09885	267.68561	170.49269	155.96565	
368	3.670	268.16013	173.20741	292.26309	267.56021	170.55692	156.15820	
369	3.680	268.16489	173.23677	292.40042	267.50510	170.57877	156.28838	
370	3.690	268.15967	173.26996	292.50723	267.49329	170.57565	156.37361	
371	3.700	268.14636	173.30299	292.58353	267.50439	170.56099	156.42819	
372	3.710	268.12827	173.33264	292.63293	267.52554	170.54312	156.46249	
373	3.720	268.10883	173.35701	292.66113	267.54971	170.52615	156.48344	
374	3.730	268.09109	173.37531	292.67435	267.57306	170.51181	156.49557	
375	3.740	268.07721	173.38766	292.67792	267.59308	170.50089	156.50177	
376	3.750	268.06818	173.39481	292.67615	267.60797	170.49370	156.50430	
377	3.760	268.06412	173.39784	292.67203	267.61655	170.49039	156.50537	
378	3.770	268.06448	173.39784	292.66745	267.61761	170.49133	156.50720	
379	3.780	268.06836	173.39574	292.66318	267.60992	170.49716	156.51207	
380	3.790	268.07462	173.39221	292.65930	267.59189	170.50883	156.52206	
381	3.800	268.08209	173.38788	292.65558	267.56223	170.52721	156.53883	
382	3.810	268.09009	173.38333	292.65216	267.52078	170.55243	156.56294	
383	3.820	268.09818	173.37923	292.64966	267.47018	170.58301	156.59308	
384	3.830	268.10599	173.37608	292.64862	267.41797	170.61446	156.62471	
385	3.840	268.11292	173.37390	292.64911	267.37891	170.63788	156.64874	
386	3.850	268.11832	173.37206	292.65060	267.37744	170.63852	156.64999	
387	3.860	268.12140	173.36913	292.65173	267.44919	170.59492	156.60640	
388	3.870	268.12079	173.36314	292.65033	267.63983	170.47951	156.48952	
389	3.880	268.11438	173.35199	292.64355	268.00037	170.26151	156.26758	
390	3.890	268.09943	173.33382	292.62827	268.57574	169.91380	155.91235	
391	3.900	268.07339	173.30754	292.60150	269.38504	169.42491	155.41156	
392	3.910	268.03513	173.27353	292.56110	270.39053	168.81725	154.78748	
393	3.920	267.98608	173.23412	292.50647	271.47632	168.15930	154.10925	
394	3.930	267.93048	173.19359	292.43994	272.48334	167.54507	153.47218	
395	3.940	267.87411	173.15685	292.36731	273.28461	167.05063	152.95407	
396	3.950	267.82294	173.12735	292.29669	273.81943	166.71402	152.59502	
397	3.960	267.78217	173.10593	292.23666	274.07178	166.54651	152.40842	
398	3.970	267.75565	173.09106	292.19421	274.04089	166.54822	152.39658	
399	3.980	267.74533	173.08034	292.17310	273.72690	166.71693	152.55916	
400	3.990	267.75034	173.07158	292.17279	273.13092	167.04932	152.89368	
401	4.000	267.76672	173.06371	292.18875	272.27075	167.53294	153.38722	
402	4.010	267.78864	173.05669	292.21332	271.21127	168.12944	153.99959	
403	4.020	267.81000	173.05110	292.23834	270.08682	168.76210	154.65091	
404	4.030	267.82629	173.04742	292.25717	269.06940	169.33377	155.24039	
405	4.040	267.83524	173.04576	292.26611	268.29669	169.76743	155.68758	
406	4.050	267.83673	173.04605	292.26474	267.83795	170.02509	155.95189	
407	4.060	267.83221	173.04811	292.25513	267.71289	170.09642	156.02194	
408	4.070	267.82370	173.05139	292.24091	267.91617	169.98428	155.90163	
409	4.080	267.81335	173.05501	292.22614	268.42404	169.70091	155.60619	
410	4.090	267.80347	173.05791	292.21460	269.18353	169.27458	155.16809	
411	4.100	267.79642	173.05916	292.20905	270.10684	168.75345	154.63939	
412	4.110	267.79395	173.05830	292.21075	271.09607	168.19241	154.07681	
413	4.120	267.79630	173.05559	292.21878	272.06042	167.64355	153.53148	
414	4.130	267.80188	173.05190	292.23022	272.91022	167.15926	153.05260	
415	4.140	267.80835	173.04839	292.24127	273.57507	166.78091	152.67807	
416	4.150	267.81369	173.04607	292.24863	274.02682	166.52521	152.42233	
417	4.160	267.81668	173.04553	292.25049	274.26709	166.39104	152.28391	
418	4.170	267.81714	173.04672	292.24695	274.30307	166.37355	152.25928	
419	4.180	267.81580	173.04910	292.23984	274.13336	166.47244	152.35071	
420	4.190	267.81409	173.05179	292.23199	273.74475	166.69434	152.56763	
421	4.200	267.81320	173.05374	292.22638	273.11975	167.04863	152.92117	
422	4.210	267.81378	173.05418	292.22501	272.25742	167.53589	153.41241	
423	4.220	267.81561	173.05286	292.22839	271.20645	168.12872	154.01337	
424	4.230	267.81793	173.05009	292.23553	270.08890	168.75819	154.65411	
425	4.240	267.81995	173.04666	292.24451	269.06689	169.33295	155.24141	
426	4.250	267.82126	173.04344	292.25293	268.26913	169.78114	155.70047	
427	4.260	267.82166	173.04118	292.25879	267.75641	170.06979	155.99500	
428	4.270	267.82123	173.04036	292.26068	267.54178	170.19255	156.11632	
429	4.280	267.81985	173.04115	292.25800	267.61798	170.15381	156.06824	
430	4.290	267.81757	173.04347	292.25092	267.96906	169.96193	155.86053	
431	4.300	267.81442	173.04689	292.24072	268.56619	169.63168	155.51123	
432	4.310	267.81091	173.05064	292.22974	269.34882	169.19556	155.05710	
433	4.320	267.80783	173.05374	292.22083	270.21426	168.71005	154.55864	
434	4.330	267.80612	173.05518	292.21661	271.04230	168.24232	154.08572	
435	4.340	267.80640	173.05450	292.21832	271.71597	167.85837	153.70520	
436	4.350	267.80856	173.05197	292.22522	272.12415	167.62173	153.47964	
437	4.360	267.81186	173.04845	292.23517	272.19284	167.57544	153.44955	
438	4.370	267.81540	173.04492	292.24554	271.93021	167.71637	153.60834	
